<mxfile host="app.diagrams.net" modified="2020-12-15T05:03:32.599Z" agent="5.0 (X11; Linux x86_64) AppleWebKit/537.36 (KHTML, like Gecko) Chrome/87.0.4280.88 Safari/537.36" etag="oRHpcAfV8gua5Dcmk8rE" version="14.0.0" type="github">
  <diagram id="KMENqYFub2aKkqoj55aV" name="Page-1">
    <mxGraphModel dx="1248" dy="717" grid="1" gridSize="10" guides="1" tooltips="1" connect="1" arrows="1" fold="1" page="1" pageScale="1" pageWidth="827" pageHeight="1169" math="0" shadow="0">
      <root>
        <mxCell id="0" />
        <mxCell id="1" parent="0" />
        <mxCell id="udsd9_pY-eEv8tuGQc4j-26" style="edgeStyle=none;rounded=1;orthogonalLoop=1;jettySize=auto;html=1;entryX=0;entryY=0.25;entryDx=0;entryDy=0;" edge="1" parent="1" target="udsd9_pY-eEv8tuGQc4j-3">
          <mxGeometry relative="1" as="geometry">
            <mxPoint x="460" y="320" as="sourcePoint" />
            <Array as="points">
              <mxPoint x="510" y="310" />
            </Array>
          </mxGeometry>
        </mxCell>
        <mxCell id="udsd9_pY-eEv8tuGQc4j-32" style="edgeStyle=none;rounded=1;orthogonalLoop=1;jettySize=auto;html=1;exitX=0;exitY=0.25;exitDx=0;exitDy=0;entryX=1;entryY=0;entryDx=0;entryDy=0;" edge="1" parent="1" source="udsd9_pY-eEv8tuGQc4j-9" target="udsd9_pY-eEv8tuGQc4j-2">
          <mxGeometry relative="1" as="geometry" />
        </mxCell>
        <mxCell id="udsd9_pY-eEv8tuGQc4j-33" style="edgeStyle=none;rounded=1;orthogonalLoop=1;jettySize=auto;html=1;exitX=0;exitY=0.75;exitDx=0;exitDy=0;entryX=1;entryY=1;entryDx=0;entryDy=0;" edge="1" parent="1" source="udsd9_pY-eEv8tuGQc4j-10" target="udsd9_pY-eEv8tuGQc4j-2">
          <mxGeometry relative="1" as="geometry" />
        </mxCell>
        <mxCell id="udsd9_pY-eEv8tuGQc4j-2" value="HS" style="whiteSpace=wrap;html=1;aspect=fixed;rounded=1;" vertex="1" parent="1">
          <mxGeometry x="390" y="300" width="70" height="70" as="geometry" />
        </mxCell>
        <mxCell id="udsd9_pY-eEv8tuGQc4j-27" style="edgeStyle=none;rounded=1;orthogonalLoop=1;jettySize=auto;html=1;exitX=0;exitY=0.75;exitDx=0;exitDy=0;" edge="1" parent="1" source="udsd9_pY-eEv8tuGQc4j-3" target="udsd9_pY-eEv8tuGQc4j-2">
          <mxGeometry relative="1" as="geometry">
            <Array as="points">
              <mxPoint x="510" y="360" />
            </Array>
          </mxGeometry>
        </mxCell>
        <mxCell id="udsd9_pY-eEv8tuGQc4j-28" style="edgeStyle=none;rounded=1;orthogonalLoop=1;jettySize=auto;html=1;exitX=0.75;exitY=0;exitDx=0;exitDy=0;entryX=0;entryY=0.5;entryDx=0;entryDy=0;" edge="1" parent="1" source="udsd9_pY-eEv8tuGQc4j-3" target="udsd9_pY-eEv8tuGQc4j-9">
          <mxGeometry relative="1" as="geometry">
            <Array as="points">
              <mxPoint x="600" y="280" />
            </Array>
          </mxGeometry>
        </mxCell>
        <mxCell id="udsd9_pY-eEv8tuGQc4j-29" style="edgeStyle=none;rounded=1;orthogonalLoop=1;jettySize=auto;html=1;exitX=0.25;exitY=1;exitDx=0;exitDy=0;entryX=1;entryY=0.25;entryDx=0;entryDy=0;" edge="1" parent="1" source="udsd9_pY-eEv8tuGQc4j-9" target="udsd9_pY-eEv8tuGQc4j-3">
          <mxGeometry relative="1" as="geometry">
            <Array as="points">
              <mxPoint x="630" y="310" />
            </Array>
          </mxGeometry>
        </mxCell>
        <mxCell id="udsd9_pY-eEv8tuGQc4j-30" style="edgeStyle=none;rounded=1;orthogonalLoop=1;jettySize=auto;html=1;exitX=1;exitY=0.75;exitDx=0;exitDy=0;" edge="1" parent="1" source="udsd9_pY-eEv8tuGQc4j-3" target="udsd9_pY-eEv8tuGQc4j-10">
          <mxGeometry relative="1" as="geometry">
            <Array as="points">
              <mxPoint x="630" y="360" />
            </Array>
          </mxGeometry>
        </mxCell>
        <mxCell id="udsd9_pY-eEv8tuGQc4j-31" style="edgeStyle=none;rounded=1;orthogonalLoop=1;jettySize=auto;html=1;exitX=0;exitY=0.5;exitDx=0;exitDy=0;entryX=0.75;entryY=1;entryDx=0;entryDy=0;" edge="1" parent="1" source="udsd9_pY-eEv8tuGQc4j-10" target="udsd9_pY-eEv8tuGQc4j-3">
          <mxGeometry relative="1" as="geometry">
            <Array as="points">
              <mxPoint x="600" y="390" />
            </Array>
          </mxGeometry>
        </mxCell>
        <mxCell id="udsd9_pY-eEv8tuGQc4j-3" value="CSC" style="whiteSpace=wrap;html=1;aspect=fixed;rounded=1;" vertex="1" parent="1">
          <mxGeometry x="550" y="315" width="40" height="40" as="geometry" />
        </mxCell>
        <mxCell id="udsd9_pY-eEv8tuGQc4j-16" style="edgeStyle=none;rounded=1;orthogonalLoop=1;jettySize=auto;html=1;exitX=0;exitY=0;exitDx=0;exitDy=0;entryX=1;entryY=0.75;entryDx=0;entryDy=0;" edge="1" parent="1" source="udsd9_pY-eEv8tuGQc4j-4" target="udsd9_pY-eEv8tuGQc4j-6">
          <mxGeometry relative="1" as="geometry">
            <Array as="points">
              <mxPoint x="230" y="270" />
            </Array>
          </mxGeometry>
        </mxCell>
        <mxCell id="udsd9_pY-eEv8tuGQc4j-20" style="edgeStyle=none;rounded=1;orthogonalLoop=1;jettySize=auto;html=1;exitX=0;exitY=0.5;exitDx=0;exitDy=0;entryX=0.25;entryY=0;entryDx=0;entryDy=0;" edge="1" parent="1" source="udsd9_pY-eEv8tuGQc4j-4" target="udsd9_pY-eEv8tuGQc4j-7">
          <mxGeometry relative="1" as="geometry">
            <Array as="points">
              <mxPoint x="190" y="360" />
            </Array>
          </mxGeometry>
        </mxCell>
        <mxCell id="udsd9_pY-eEv8tuGQc4j-4" value="CCPC" style="whiteSpace=wrap;html=1;aspect=fixed;rounded=1;" vertex="1" parent="1">
          <mxGeometry x="240" y="315" width="40" height="40" as="geometry" />
        </mxCell>
        <mxCell id="udsd9_pY-eEv8tuGQc4j-5" value="RUN&lt;br&gt;Pattern" style="whiteSpace=wrap;html=1;aspect=fixed;rounded=1;" vertex="1" parent="1">
          <mxGeometry x="400" y="450" width="50" height="50" as="geometry" />
        </mxCell>
        <mxCell id="udsd9_pY-eEv8tuGQc4j-17" style="edgeStyle=none;rounded=1;orthogonalLoop=1;jettySize=auto;html=1;exitX=0.5;exitY=1;exitDx=0;exitDy=0;entryX=0;entryY=0.25;entryDx=0;entryDy=0;" edge="1" parent="1" source="udsd9_pY-eEv8tuGQc4j-6" target="udsd9_pY-eEv8tuGQc4j-4">
          <mxGeometry relative="1" as="geometry">
            <Array as="points">
              <mxPoint x="200" y="310" />
            </Array>
          </mxGeometry>
        </mxCell>
        <mxCell id="udsd9_pY-eEv8tuGQc4j-18" style="edgeStyle=none;rounded=1;orthogonalLoop=1;jettySize=auto;html=1;exitX=1;exitY=0.25;exitDx=0;exitDy=0;entryX=0;entryY=0;entryDx=0;entryDy=0;" edge="1" parent="1" source="udsd9_pY-eEv8tuGQc4j-6" target="udsd9_pY-eEv8tuGQc4j-2">
          <mxGeometry relative="1" as="geometry" />
        </mxCell>
        <mxCell id="udsd9_pY-eEv8tuGQc4j-6" value="CC" style="whiteSpace=wrap;html=1;aspect=fixed;rounded=1;" vertex="1" parent="1">
          <mxGeometry x="170" y="210" width="40" height="40" as="geometry" />
        </mxCell>
        <mxCell id="udsd9_pY-eEv8tuGQc4j-21" style="edgeStyle=none;rounded=1;orthogonalLoop=1;jettySize=auto;html=1;exitX=0.75;exitY=0;exitDx=0;exitDy=0;entryX=0.25;entryY=1;entryDx=0;entryDy=0;" edge="1" parent="1" source="udsd9_pY-eEv8tuGQc4j-7" target="udsd9_pY-eEv8tuGQc4j-4">
          <mxGeometry relative="1" as="geometry">
            <Array as="points">
              <mxPoint x="230" y="390" />
            </Array>
          </mxGeometry>
        </mxCell>
        <mxCell id="udsd9_pY-eEv8tuGQc4j-22" style="edgeStyle=none;rounded=1;orthogonalLoop=1;jettySize=auto;html=1;exitX=0.25;exitY=1;exitDx=0;exitDy=0;entryX=0.25;entryY=0;entryDx=0;entryDy=0;" edge="1" parent="1" source="udsd9_pY-eEv8tuGQc4j-7" target="udsd9_pY-eEv8tuGQc4j-8">
          <mxGeometry relative="1" as="geometry">
            <Array as="points">
              <mxPoint x="160" y="470" />
            </Array>
          </mxGeometry>
        </mxCell>
        <mxCell id="udsd9_pY-eEv8tuGQc4j-23" style="edgeStyle=none;rounded=1;orthogonalLoop=1;jettySize=auto;html=1;exitX=0.75;exitY=1;exitDx=0;exitDy=0;entryX=0.75;entryY=0;entryDx=0;entryDy=0;" edge="1" parent="1" source="udsd9_pY-eEv8tuGQc4j-7" target="udsd9_pY-eEv8tuGQc4j-8">
          <mxGeometry relative="1" as="geometry">
            <Array as="points">
              <mxPoint x="200" y="470" />
            </Array>
          </mxGeometry>
        </mxCell>
        <mxCell id="udsd9_pY-eEv8tuGQc4j-24" style="edgeStyle=none;rounded=1;orthogonalLoop=1;jettySize=auto;html=1;exitX=1;exitY=0.25;exitDx=0;exitDy=0;entryX=0;entryY=0.75;entryDx=0;entryDy=0;" edge="1" parent="1" source="udsd9_pY-eEv8tuGQc4j-7" target="udsd9_pY-eEv8tuGQc4j-2">
          <mxGeometry relative="1" as="geometry" />
        </mxCell>
        <mxCell id="udsd9_pY-eEv8tuGQc4j-7" value="MODE" style="whiteSpace=wrap;html=1;aspect=fixed;rounded=1;" vertex="1" parent="1">
          <mxGeometry x="160" y="410" width="40" height="40" as="geometry" />
        </mxCell>
        <mxCell id="udsd9_pY-eEv8tuGQc4j-25" style="edgeStyle=none;rounded=1;orthogonalLoop=1;jettySize=auto;html=1;exitX=1;exitY=0.5;exitDx=0;exitDy=0;entryX=0;entryY=1;entryDx=0;entryDy=0;" edge="1" parent="1" source="udsd9_pY-eEv8tuGQc4j-8" target="udsd9_pY-eEv8tuGQc4j-2">
          <mxGeometry relative="1" as="geometry" />
        </mxCell>
        <mxCell id="udsd9_pY-eEv8tuGQc4j-8" value="MC" style="whiteSpace=wrap;html=1;aspect=fixed;rounded=1;" vertex="1" parent="1">
          <mxGeometry x="165" y="490" width="30" height="30" as="geometry" />
        </mxCell>
        <mxCell id="udsd9_pY-eEv8tuGQc4j-9" value="RR" style="whiteSpace=wrap;html=1;aspect=fixed;rounded=1;" vertex="1" parent="1">
          <mxGeometry x="650" y="240" width="40" height="40" as="geometry" />
        </mxCell>
        <mxCell id="udsd9_pY-eEv8tuGQc4j-10" value="CD" style="whiteSpace=wrap;html=1;aspect=fixed;rounded=1;" vertex="1" parent="1">
          <mxGeometry x="650" y="390" width="40" height="40" as="geometry" />
        </mxCell>
        <mxCell id="udsd9_pY-eEv8tuGQc4j-13" value="" style="endArrow=classic;html=1;exitX=-0.002;exitY=0.364;exitDx=0;exitDy=0;entryX=1;entryY=0.25;entryDx=0;entryDy=0;exitPerimeter=0;" edge="1" parent="1" source="udsd9_pY-eEv8tuGQc4j-2" target="udsd9_pY-eEv8tuGQc4j-4">
          <mxGeometry width="50" height="50" relative="1" as="geometry">
            <mxPoint x="440" y="340" as="sourcePoint" />
            <mxPoint x="390" y="390" as="targetPoint" />
            <Array as="points">
              <mxPoint x="330" y="310" />
            </Array>
          </mxGeometry>
        </mxCell>
        <mxCell id="udsd9_pY-eEv8tuGQc4j-14" style="rounded=1;orthogonalLoop=1;jettySize=auto;html=1;exitX=1;exitY=0.75;exitDx=0;exitDy=0;entryX=-0.028;entryY=0.623;entryDx=0;entryDy=0;elbow=vertical;entryPerimeter=0;" edge="1" parent="1" source="udsd9_pY-eEv8tuGQc4j-4" target="udsd9_pY-eEv8tuGQc4j-2">
          <mxGeometry relative="1" as="geometry">
            <Array as="points">
              <mxPoint x="330" y="360" />
            </Array>
          </mxGeometry>
        </mxCell>
      </root>
    </mxGraphModel>
  </diagram>
</mxfile>
